<svg width="129" height="207" viewBox="0 0 129 207" fill="none" xmlns="http://www.w3.org/2000/svg">
<g clip-path="url(#clip0_327_5526)">
<path d="M64.5 206.999C28.9362 206.999 0 178.291 0 143V81.294H4.6239V143C4.6239 175.761 31.4827 202.411 64.5 202.411C97.5173 202.411 124.376 175.761 124.376 143C124.376 110.239 97.5173 83.588 64.5 83.588H50.3234V79H64.5C100.067 79 129 107.712 129 143C129 178.288 100.064 206.999 64.5 206.999Z" fill="white"/>
<path d="M64.4986 197.476C34.2288 197.476 9.60156 173.039 9.60156 143.004V90.8272H14.2255V143.004C14.2255 170.509 36.7787 192.888 64.4986 192.888C92.2185 192.888 114.772 170.509 114.772 143.004C114.772 115.5 92.2185 93.1212 64.4986 93.1212H50.322V88.5332H64.4986C94.7684 88.5332 119.396 112.969 119.396 143.004C119.396 173.039 94.7684 197.476 64.4986 197.476Z" fill="white"/>
<path d="M64.5011 187.945C39.5254 187.945 19.207 167.785 19.207 143.003V100.351H23.8309V143.003C23.8309 165.255 42.0752 183.357 64.5011 183.357C86.927 183.357 105.171 165.255 105.171 143.003C105.171 120.751 86.927 102.645 64.5011 102.645H50.3245V98.0566H64.5011C89.4768 98.0566 109.795 118.217 109.795 143.003C109.795 167.788 89.4768 187.945 64.5011 187.945Z" fill="white"/>
<path d="M64.4992 178.417C44.8174 178.417 28.8047 162.529 28.8047 143V109.876H33.4286V143C33.4286 159.999 47.3673 173.829 64.4992 173.829C81.631 173.829 95.5697 159.999 95.5697 143C95.5697 126.001 81.631 112.17 64.4992 112.17H50.3226V107.582H64.4992C84.1809 107.582 100.194 123.471 100.194 143C100.194 162.529 84.1809 178.417 64.4992 178.417Z" fill="white"/>
<path d="M64.5017 168.89C50.114 168.89 38.4102 157.277 38.4102 143V119.405H43.0341V143C43.0341 154.746 52.6638 164.302 64.5017 164.302C76.3395 164.302 85.9693 154.746 85.9693 143C85.9693 131.254 76.3395 121.699 64.5017 121.699H50.3251V117.111H64.5017C78.8894 117.111 90.5932 128.724 90.5932 143C90.5932 157.277 78.8894 168.89 64.5017 168.89Z" fill="white"/>
<path d="M64.5003 159.36C55.41 159.36 48.0117 152.019 48.0117 142.999V126.639H64.5003C73.5906 126.639 80.9888 133.98 80.9888 142.999C80.9888 152.019 73.5906 159.36 64.5003 159.36ZM52.6356 131.227V142.999C52.6356 149.492 57.9598 154.772 64.5003 154.772C71.0407 154.772 76.3649 149.489 76.3649 142.999C76.3649 136.51 71.0407 131.227 64.5003 131.227H52.6356Z" fill="white"/>
<path d="M114.254 104.69L110.689 101.768C119.518 91.1589 124.379 77.7472 124.379 63.9997C124.379 31.2385 97.5207 4.58803 64.5033 4.58803C31.4861 4.58803 4.6239 31.2418 4.6239 63.9997V81.2946H0V63.9997C0 28.7118 28.9362 0 64.5 0C100.064 0 129 28.7118 129 63.9997C129 78.8077 123.763 93.26 114.254 104.687V104.69Z" fill="white"/>
<path d="M107.3 98.0783L103.698 95.2025C110.841 86.3855 114.775 75.3044 114.775 63.9972C114.775 36.4923 92.2219 14.114 64.5019 14.114C36.782 14.114 14.2255 36.4956 14.2255 64.0005V90.8239H9.60156V64.0005C9.60156 33.9656 34.2288 9.5293 64.4986 9.5293C94.7684 9.5293 119.396 33.9656 119.396 64.0005C119.396 76.3483 115.1 88.4501 107.296 98.0783H107.3Z" fill="white"/>
<path d="M23.8309 100.351H19.207V63.9988C19.207 39.2168 39.5254 19.0527 64.5011 19.0527C89.4768 19.0527 109.795 39.2135 109.795 63.9988C109.795 74.2587 106.203 84.3025 99.6863 92.275L96.0944 89.3826C101.948 82.2246 105.171 73.2081 105.171 63.9988C105.171 41.7469 86.927 23.6408 64.5011 23.6408C42.0752 23.6408 23.8309 41.7435 23.8309 63.9988V100.351Z" fill="white"/>
<path d="M33.4286 109.881H28.8047V64.0035C28.8047 44.4745 44.8174 28.5859 64.4992 28.5859C84.1809 28.5859 100.194 44.4745 100.194 64.0035C100.194 72.8638 96.8664 81.3483 90.8286 87.8945L87.4176 84.796C92.6748 79.0975 95.5697 71.7101 95.5697 64.0002C95.5697 47.0012 81.631 33.1706 64.4992 33.1706C47.3673 33.1706 33.4286 47.0012 33.4286 64.0002V109.877V109.881Z" fill="white"/>
<path d="M43.0341 119.406H38.4102V64.0005C38.4102 49.7244 50.114 38.1113 64.5017 38.1113C78.8894 38.1113 90.5932 49.7244 90.5932 64.0005C90.5932 72.1259 86.6595 79.889 80.0688 84.7663L77.3045 81.0892C82.7292 77.0763 85.9693 70.6863 85.9693 64.0038C85.9693 52.2578 76.3395 42.7027 64.5017 42.7027C52.6638 42.7027 43.0341 52.2578 43.0341 64.0038V119.409V119.406Z" fill="white"/>
<path d="M52.6356 128.935H48.0117V64.0007C48.0117 59.3461 50.0255 54.8944 53.5369 51.7859C57.0451 48.684 61.746 47.2111 66.4369 47.7497C74.2507 48.6441 80.4929 55.2003 80.9587 63.0033C80.9788 63.3324 80.9888 63.6682 80.9888 63.9973C80.9888 75.3477 72.9808 83.5862 61.9471 83.5862V78.9982C70.4376 78.9982 76.3649 72.831 76.3649 63.9973C76.3649 63.758 76.3582 63.5119 76.3448 63.2726C76.0131 57.6605 71.5266 52.9462 65.9109 52.3045C62.4765 51.9122 59.1761 52.9428 56.6162 55.2069C54.0864 57.4444 52.6356 60.6461 52.6356 63.9973V128.931V128.935Z" fill="white"/>
</g>
<defs>
<clipPath id="clip0_327_5526">
<rect width="129" height="207" fill="white"/>
</clipPath>
</defs>
</svg>
