<svg width="110" height="110" viewBox="0 0 110 110" fill="none" xmlns="http://www.w3.org/2000/svg">
<path d="M54.999 64.2762C60.1071 64.2762 64.2481 60.122 64.2481 54.9975C64.2481 49.873 60.1071 45.7188 54.999 45.7188C49.8909 45.7188 45.75 49.873 45.75 54.9975C45.75 60.122 49.8909 64.2762 54.999 64.2762Z" fill="white"/>
<path d="M26.9336 67.794C27.56 72.7189 29.2155 77.5124 31.7189 81.8208L28.8653 83.4864C30.5232 88.7841 33.3458 93.9599 37.2402 98.5312C41.1252 103.105 46.0915 107.06 51.801 110.001L55.6716 96.6147C51.2555 95.3244 47.1086 93.2215 43.4999 90.4162C39.8913 87.6156 36.8234 84.1172 34.5367 80.1744C32.2477 76.234 30.7375 71.8563 30.1683 67.3758C29.5918 62.893 29.9491 58.3217 31.2044 53.9727C28.9035 58.0134 27.3766 62.7257 26.9336 67.794Z" fill="white"/>
<path d="M24.8015 46.0327C22.1266 50.2097 20.3235 54.9506 19.4803 59.8636L16.2266 59.2997C14.1019 64.4253 12.949 70.2129 13.0038 76.2251C13.0491 82.2349 14.321 88.4645 16.8101 94.4002L28.3506 86.6413C25.7948 82.8036 23.9655 78.5215 22.9984 74.0434C22.0266 69.5701 21.9194 64.9128 22.6935 60.418C23.4653 55.9232 25.1136 51.598 27.5479 47.7962C29.9775 43.992 33.1812 40.7183 36.9303 38.1973C32.5785 39.8102 28.3887 42.4364 24.8015 46.0303V46.0327Z" fill="white"/>
<path d="M37.1129 27.9822C32.3871 29.4566 27.9687 31.925 24.1742 35.1438L22.0424 32.6132C17.1309 35.1701 12.5385 38.8596 8.72978 43.5001C4.91393 48.1335 1.89602 53.7251 0 59.8783L13.8128 61.3766C14.313 56.791 15.6564 52.3272 17.7835 48.2745C19.9058 44.2218 22.807 40.5848 26.2799 37.6409C29.7503 34.6945 33.7853 32.4435 38.0847 31.103C42.3841 29.7553 46.9336 29.3132 51.4235 29.8007C47.0575 28.2307 42.165 27.5401 37.1129 27.9798V27.9822Z" fill="white"/>
<path d="M58.1099 22.0959C53.5461 20.1794 48.5774 19.2188 43.6087 19.2403L43.5968 15.9284C38.1946 14.7216 32.316 14.5854 26.4231 15.6823C20.5302 16.7695 14.6349 19.1089 9.24219 22.5977L18.8628 32.6531C22.1856 29.463 26.0729 26.9109 30.2985 25.1785C34.5216 23.4436 39.0735 22.5284 43.6206 22.5117C48.1654 22.4926 52.7006 23.3695 56.8523 25.1163C61.0087 26.8559 64.7769 29.4534 67.9044 32.72C65.5654 28.7007 62.2616 25.0183 58.1075 22.0983L58.1099 22.0959Z" fill="white"/>
<path d="M77.9607 31.1267C75.6931 26.7155 72.5013 22.7775 68.683 19.5874L70.7982 17.0425C67.4349 12.6337 63.0164 8.7387 57.8 5.7804C52.5883 2.81493 46.5763 0.802899 40.207 0L41.1336 13.9074C45.7236 13.6063 50.3374 14.1559 54.6844 15.5562C59.0314 16.9493 63.1045 19.1836 66.5988 22.1036C70.0931 25.0213 73.0039 28.6152 75.0666 32.6321C77.1365 36.6466 78.3608 41.065 78.6609 45.5837C79.4446 40.9981 79.2731 36.0444 77.963 31.1291L77.9607 31.1267Z" fill="white"/>
<path d="M87.3879 50.8474C88.4765 46.0061 88.5574 40.9306 87.6737 36.0248L90.9227 35.4394C91.1704 29.8931 90.282 24.0602 88.1811 18.4279C86.0898 12.7957 82.7717 7.3785 78.408 2.6543L70.207 13.9045C73.9157 16.6334 77.098 20.0313 79.5323 23.9048C81.969 27.7736 83.6578 32.1154 84.4629 36.6031C85.2704 41.0907 85.1965 45.7217 84.2056 50.1281C83.2195 54.5369 81.3259 58.7115 78.6605 62.3676C82.2001 59.3591 85.2418 55.4545 87.3855 50.845L87.3879 50.8474Z" fill="white"/>
<path d="M81.9735 72.0328C85.9109 69.0267 89.2217 65.189 91.6894 60.8639L94.5549 62.5103C98.2993 58.4217 101.355 53.3797 103.354 47.7116C105.359 42.0483 106.291 35.7589 105.974 29.3262L92.4826 32.6572C93.5759 37.1401 93.8355 41.7926 93.2186 46.3304C92.6065 50.8659 91.1178 55.2794 88.8597 59.2389C86.604 63.1985 83.5789 66.6968 79.9965 69.4329C76.4165 72.1738 72.291 74.1499 67.9082 75.2348C72.5458 75.2133 77.3788 74.1834 81.9759 72.0352L81.9735 72.0328Z" fill="white"/>
<path d="M64.2501 84.7657C69.1926 84.9999 74.1875 84.1994 78.849 82.4741L79.9899 85.583C85.4779 84.8637 91.0492 82.9735 96.2133 79.9221C101.38 76.8777 106.122 72.6577 110 67.5273L97.5329 61.3789C95.4987 65.5177 92.7166 69.2502 89.3342 72.328C85.959 75.4081 81.9907 77.8288 77.7247 79.4035C73.4587 80.9806 68.8996 81.7119 64.4026 81.4968C59.9031 81.2889 55.4774 80.1419 51.4258 78.1442C54.9939 81.1192 59.3552 83.4443 64.2525 84.7633L64.2501 84.7657Z" fill="white"/>
<path d="M42.5134 83.0919C46.1482 86.4588 50.4905 89.0658 55.1662 90.7505L54.0467 93.8665C58.7105 96.8559 64.189 98.9993 70.1009 99.991C76.0081 100.99 82.3464 100.815 88.6038 99.3865L82.9919 86.6357C78.7831 88.4947 74.2598 89.5581 69.696 89.7373C65.137 89.9189 60.5446 89.2164 56.269 87.6703C51.9911 86.1291 48.0299 83.749 44.7214 80.6832C41.4082 77.6221 38.7523 73.8896 36.9277 69.7461C37.7543 74.3245 39.605 78.9197 42.511 83.0895L42.5134 83.0919Z" fill="white"/>
<path d="M26.9336 67.794C27.56 72.7189 29.2155 77.5124 31.7189 81.8208L28.8653 83.4864C30.5232 88.7841 33.3458 93.9599 37.2402 98.5312C41.1252 103.105 46.0915 107.06 51.801 110.001L55.6716 96.6147C51.2555 95.3244 47.1086 93.2215 43.4999 90.4162C39.8913 87.6156 36.8234 84.1172 34.5367 80.1744C32.2477 76.234 30.7375 71.8563 30.1683 67.3758C29.5918 62.893 29.9491 58.3217 31.2044 53.9727C28.9035 58.0134 27.3766 62.7257 26.9336 67.794Z" fill="white"/>
</svg>
