<svg width="110" height="110" viewBox="0 0 110 110" fill="none" xmlns="http://www.w3.org/2000/svg">
<path d="M110 24.5159L104.968 29.2477L98.5911 23.1292L96.9963 21.6002C96.4664 21.0922 95.9261 20.5645 95.4223 20.1154C94.9082 19.6515 94.4044 19.173 93.8798 18.7189L92.2693 17.3912C90.0794 15.6683 87.7538 14.1 85.3081 12.706C82.8571 11.3218 80.2731 10.1487 77.6133 9.15223C76.2874 8.63929 74.9223 8.22698 73.5598 7.8073L71.4873 7.26C70.7957 7.08084 70.0909 6.95322 69.394 6.79369C66.5881 6.22431 63.7352 5.85617 60.8615 5.6991C57.9877 5.54693 55.1035 5.63774 52.2375 5.91752C49.3742 6.20467 46.5239 6.6808 43.7467 7.41462C40.9669 8.13617 38.2446 9.06143 35.6135 10.1806C32.9799 11.2997 30.4663 12.6594 28.0598 14.1663L27.1619 14.7406C26.8591 14.9296 26.5642 15.1234 26.2797 15.3345L24.5465 16.5665C23.4372 17.4427 22.3096 18.3017 21.2708 19.2515C19.1618 21.1216 17.1703 23.1219 15.4189 25.3012C8.25925 33.9206 4.33881 44.8396 4.20048 55.8371C4.09607 66.8322 7.77637 77.9082 14.8368 86.7877C16.5647 89.0285 18.538 91.0999 20.6418 93.0436C21.678 94.0327 22.8056 94.926 23.9149 95.8415L25.6506 97.1324C25.9351 97.3533 26.2327 97.557 26.5381 97.7558L27.4412 98.3595C29.8608 99.9474 32.4031 101.386 35.0706 102.583C37.7408 103.781 40.5076 104.785 43.3474 105.582C46.1846 106.392 49.1028 106.94 52.047 107.293C54.9912 107.639 57.9668 107.789 60.9398 107.691C63.9127 107.585 66.8752 107.264 69.7986 106.729C70.5268 106.579 71.2603 106.459 71.9833 106.287L74.1471 105.762C75.5722 105.357 77.0026 104.952 78.3938 104.446C81.184 103.462 83.909 102.291 86.5009 100.895C89.0875 99.491 91.5593 97.8981 93.8928 96.136L95.6103 94.7763C96.1689 94.31 96.7092 93.8192 97.2599 93.343C97.8106 92.8718 98.3509 92.3638 98.8938 91.8656L100.52 90.366L107.027 84.3703L107.933 85.2219L101.556 91.3404L99.9614 92.8694C99.4289 93.3799 98.9069 93.8903 98.3457 94.3935C97.7897 94.8941 97.2468 95.4071 96.6804 95.8979L94.9421 97.3288C92.5799 99.1866 90.0637 100.88 87.4223 102.38C84.773 103.872 81.9827 105.138 79.1116 106.213C77.6812 106.763 76.2091 107.212 74.737 107.659L72.5027 108.248C71.7562 108.439 70.9966 108.579 70.2423 108.748C67.2171 109.362 64.1372 109.755 61.0416 109.922C57.9459 110.081 54.8346 109.985 51.7468 109.681C48.6616 109.369 45.5895 108.851 42.5957 108.059C39.5966 107.278 36.6628 106.277 33.8256 105.067C30.9858 103.857 28.2738 102.392 25.6793 100.762L24.7136 100.141C24.3873 99.9376 24.0689 99.7266 23.7635 99.5008L21.8972 98.1706C20.7018 97.2281 19.4881 96.298 18.3683 95.2745C16.0975 93.2596 13.9572 91.0998 12.0674 88.7511C4.35709 79.447 0.136485 67.6715 0.000757871 55.8346C-0.014903 52.8724 0.212179 49.9101 0.679395 46.9772L0.864715 45.8777L0.95868 45.328L1.07875 44.7831L1.56684 42.6038L2.15935 40.4489C2.36033 39.7298 2.61873 39.0279 2.84581 38.3162C3.82201 35.4913 5.03311 32.7352 6.46347 30.0797C7.91993 27.4364 9.60608 24.9037 11.4854 22.5034C13.3516 20.0909 15.4737 17.8624 17.7367 15.7763C18.8538 14.716 20.0649 13.7491 21.263 12.7698L23.1345 11.3807C23.4424 11.1451 23.7635 10.9242 24.0898 10.7107L25.0607 10.0603C27.6683 8.35215 30.4089 6.80597 33.2853 5.51503C36.1617 4.22654 39.1425 3.14667 42.1989 2.29013C45.2528 1.42378 48.3928 0.83476 51.5589 0.45435C54.725 0.0837571 57.9277 -0.0733153 61.1225 0.0322177C64.3173 0.147568 67.5043 0.493618 70.6495 1.07037C71.4325 1.22989 72.2208 1.36242 72.9986 1.54649L75.3269 2.11343C76.8616 2.55028 78.3964 2.98714 79.8946 3.52953C82.8989 4.58977 85.8275 5.85371 88.6177 7.35817C91.4027 8.87 94.0625 10.588 96.5682 12.4851L98.4136 13.9479C99.0139 14.451 99.5934 14.9737 100.186 15.4891C100.794 16.0143 101.316 16.5052 101.862 17.0059L103.488 18.5054L109.995 24.5012L110 24.5159Z" fill="white"/>
<path d="M103.84 30.3087L98.8074 35.0405L93.3366 29.7761L90.6011 27.1427L89.9173 26.485C89.6902 26.269 89.4788 26.0825 89.2595 25.8788C88.821 25.4861 88.4034 25.0713 87.9466 24.6958C86.1639 23.1472 84.2193 21.7703 82.1886 20.5211C80.1553 19.2744 78.0124 18.1773 75.7729 17.279C73.5386 16.371 71.2261 15.6322 68.8613 15.0653C66.4965 14.4959 64.0743 14.145 61.6364 13.9511C59.1985 13.7645 56.7424 13.7498 54.2993 13.9363C51.8562 14.1302 49.4288 14.5057 47.0483 15.0604C42.2744 16.1476 37.7223 18.0521 33.5695 20.5407C31.4997 21.7998 29.5525 23.2331 27.7202 24.7915C25.88 26.3426 24.1965 28.0606 22.6643 29.8841C19.5739 33.5213 17.1726 37.669 15.5099 42.0695C13.8473 46.4749 12.999 51.1502 12.9102 55.8403C12.8789 60.5304 13.6019 65.245 15.1654 69.7216C16.7263 74.1933 19.0441 78.4489 22.0875 82.2162C23.5962 84.106 25.264 85.8927 27.099 87.5174C28.9261 89.147 30.8785 90.6589 32.964 91.9964C37.148 94.6446 41.7784 96.7111 46.6777 97.948C49.1208 98.5763 51.6213 99.023 54.1479 99.2831C56.6745 99.531 59.2246 99.5776 61.7643 99.4402C64.304 99.2978 66.8384 98.9886 69.3233 98.4511C71.8081 97.9186 74.2512 97.1995 76.6186 96.3012C78.9912 95.4128 81.2751 94.3108 83.452 93.0469C85.6262 91.7804 87.7143 90.3717 89.6432 88.7789C91.5512 87.1935 93.3966 85.4313 95.2707 83.7256L100.869 78.5815L101.775 79.4331L96.3043 84.6975C94.472 86.4474 92.6971 88.2242 90.7369 89.9349C88.7845 91.6258 86.6546 93.1352 84.4282 94.4998C82.1991 95.8619 79.8474 97.0596 77.3964 98.0413C74.9481 99.0328 72.4163 99.8402 69.827 100.456C67.2404 101.077 64.5885 101.46 61.9261 101.669C59.2612 101.87 56.5779 101.882 53.9051 101.676C51.235 101.462 48.5831 101.048 45.9781 100.439C40.7579 99.2414 35.7777 97.1577 31.2413 94.4261C28.9783 93.0469 26.851 91.4786 24.8517 89.7753C22.8444 88.0794 21.0095 86.2019 19.3364 84.2066C15.9641 80.2283 13.3409 75.6879 11.5295 70.8776C9.71804 66.0623 8.79666 60.9574 8.70792 55.8379C8.6766 50.7183 9.4753 45.5766 11.1849 40.6877C12.8946 35.8062 15.4343 31.1579 18.7596 27.0494C20.4092 24.9879 22.2311 23.0416 24.2304 21.2721C26.2246 19.4952 28.3571 17.8484 30.6383 16.3906C35.2087 13.5019 40.2698 11.2538 45.6127 9.90891C48.2803 9.22417 51.0053 8.74068 53.7564 8.46335C56.5101 8.19338 59.2873 8.14675 62.0566 8.29891C64.8234 8.45599 67.5849 8.79713 70.2942 9.38615C73.0036 9.96781 75.6659 10.7556 78.2473 11.7373C80.834 12.7117 83.3241 13.9118 85.6967 15.2911C88.0667 16.6753 90.3401 18.2141 92.4387 19.9493C92.9738 20.3714 93.4697 20.8353 93.9839 21.277L94.7408 21.9446L95.4403 22.5876L98.241 25.1597L103.84 30.3038V30.3087Z" fill="white"/>
<path d="M97.6788 36.0994L92.6464 40.8312L83.5292 32.0229C82.1354 30.6779 80.6059 29.4631 78.9954 28.3562C77.3797 27.2543 75.6701 26.2652 73.8691 25.443C70.2723 23.7962 66.3806 22.6648 62.3766 22.2255C58.3805 21.7788 54.2826 21.9113 50.3282 22.7311C42.4038 24.3067 35.0719 28.501 29.9012 34.4747C27.2963 37.4394 25.2656 40.8435 23.8379 44.4635C22.4414 48.0983 21.6923 51.9564 21.6166 55.8414C21.5697 59.7265 22.1987 63.6239 23.4933 67.3323C24.8167 71.0259 26.7664 74.5404 29.3296 77.6352C34.4063 83.8666 41.8087 88.4217 49.9993 90.2869C54.0868 91.2514 58.3596 91.5141 62.5698 91.1606C66.7878 90.8146 70.9353 89.7421 74.8061 88.0977C76.7455 87.2805 78.5961 86.2767 80.3579 85.1502C82.1145 84.0188 83.7876 82.7646 85.325 81.3657L94.7111 72.7905L95.6168 73.6422L86.4813 82.4652C84.923 83.9623 83.2134 85.322 81.4072 86.5565C79.5983 87.786 77.6825 88.8905 75.6675 89.8059C71.6426 91.6441 67.2915 92.8958 62.823 93.3817C58.3622 93.8751 53.7945 93.718 49.3833 92.8001C40.5428 91.033 32.3548 86.3258 26.6124 79.6674C23.7126 76.3566 21.4496 72.5549 19.8678 68.5152C18.3174 64.4632 17.49 60.1634 17.4143 55.8414C17.3673 51.5195 18.0747 47.1804 19.5233 43.0548C21.0033 38.9414 23.1853 35.0293 26.0408 31.5885C31.6892 24.6724 39.9503 19.6068 49.0545 17.5477C53.5987 16.4825 58.3413 16.1954 63.0161 16.5979C67.6987 16.9906 72.3056 18.1858 76.6045 20.0191C78.7579 20.9321 80.8147 22.0488 82.7697 23.3029C84.7194 24.5619 86.5752 25.9584 88.2745 27.5095L97.6788 36.1019V36.0994Z" fill="white"/>
<path d="M91.5214 41.8907L86.489 46.6225L79.1754 39.5027L78.2619 38.6118L77.8051 38.1676L77.5754 37.9443L77.364 37.7479L76.5287 36.9749L75.6543 36.241C74.4641 35.2863 73.1877 34.4273 71.8383 33.6763C66.451 30.6527 59.8551 29.4943 53.5699 30.4588C50.4299 30.9398 47.3656 31.924 44.5728 33.3916C41.7903 34.8691 39.2428 36.7883 37.1365 39.088C35.0353 41.3827 33.3178 44.0112 32.1772 46.868C31.0235 49.7174 30.3945 52.768 30.324 55.8407C30.2718 58.9135 30.7808 62.0034 31.8326 64.9288C32.8741 67.8617 34.5107 70.6031 36.5753 73.0328C38.6425 75.465 41.1874 77.5413 44.0194 79.1782C46.8619 80.8054 50.0253 81.9491 53.3089 82.5725C59.8786 83.8192 66.9573 82.8596 72.9137 79.7967C74.4041 79.0359 75.824 78.1524 77.1604 77.1608L78.1444 76.3951L79.0867 75.5852C79.7157 75.033 80.3474 74.444 80.979 73.8771L88.551 67.0002L89.4568 67.8519L82.1431 74.9717C81.5298 75.5656 80.9347 76.1571 80.303 76.751L79.3346 77.6419L78.3219 78.4886C76.9437 79.5881 75.4638 80.5796 73.9029 81.4435C67.6569 84.9261 60.0561 86.2391 52.8208 85.1102C49.2058 84.5482 45.6742 83.4045 42.4559 81.7037C39.2455 79.9931 36.3273 77.7744 33.9129 75.1287C31.4985 72.4855 29.5331 69.4447 28.2254 66.156C26.9073 62.8746 26.1921 59.3699 26.1243 55.8432C26.0721 52.3164 26.6646 48.7749 27.8835 45.415C29.0894 42.0503 30.9791 38.899 33.3544 36.1208C35.7296 33.3401 38.6477 30.9668 41.9078 29.0967C45.1757 27.2364 48.8038 25.9307 52.565 25.2288C60.0848 23.8176 68.1684 24.9318 74.9835 28.4537C76.688 29.3274 78.3115 30.3435 79.8358 31.4798L80.9581 32.3559L82.0335 33.2837L82.2971 33.5144L82.5347 33.7303L83.0071 34.1598L83.9546 35.0188L91.5266 41.8956L91.5214 41.8907Z" fill="white"/>
<path d="M85.3603 47.685L80.328 52.4169L74.8284 47.0028L72.0773 44.2957L71.396 43.6282L70.7983 43.0637L70.1719 42.5287C69.9605 42.3519 69.736 42.1924 69.5194 42.0206C65.9905 39.37 61.3392 38.003 56.7218 38.3073C54.4171 38.4546 52.1358 39.0043 50.0294 39.9321C47.923 40.8573 45.9889 42.1556 44.3576 43.7558C42.7315 45.356 41.416 47.2384 40.5076 49.2975C39.5967 51.3566 39.0903 53.5875 39.0277 55.843C38.9676 58.0985 39.3513 60.3711 40.1657 62.5112C40.9774 64.6513 42.2199 66.654 43.8173 68.3916C45.4173 70.1292 47.3645 71.5895 49.5387 72.6743C51.713 73.7591 54.1143 74.4659 56.5835 74.7432C59.0527 75.0206 61.5897 74.8635 64.0198 74.2818C66.4498 73.7026 68.7729 72.6915 70.8323 71.3097C71.0854 71.1306 71.3465 70.9612 71.5918 70.7747L72.3279 70.2078L73.0326 69.6065L73.7504 68.9635L76.6294 66.3767L82.3874 61.2055L83.2931 62.0572L77.7935 67.4713L75.0424 70.1783L74.3507 70.8557L73.6147 71.5429L72.8421 72.1982C72.5811 72.4141 72.307 72.6129 72.0382 72.8191C69.8535 74.4315 67.3373 75.666 64.6567 76.4318C61.9787 77.1975 59.1388 77.4994 56.3251 77.3079C53.5114 77.1165 50.7237 76.4317 48.1501 75.2856C45.5765 74.1419 43.2222 72.5393 41.2489 70.5882C39.2782 68.6321 37.6808 66.3227 36.5846 63.8046C35.4857 61.289 34.888 58.5746 34.8253 55.8405C34.7653 53.104 35.243 50.3479 36.2453 47.7513C37.2423 45.1547 38.7667 42.725 40.7112 40.6315C42.6532 38.5405 45.0206 36.7783 47.662 35.4751C50.3009 34.1695 53.2086 33.3301 56.1894 33.0086C59.1701 32.6871 62.2214 32.8859 65.15 33.5976C68.0786 34.3069 70.8792 35.5414 73.3537 37.2152C73.659 37.4312 73.9697 37.6373 74.2672 37.8631L75.1468 38.5479L75.9925 39.2719L76.7207 39.9247L79.5997 42.5115L85.3577 47.6826L85.3603 47.685Z" fill="white"/>
<path d="M58.2289 65.5461C63.8264 65.5461 68.3641 61.2794 68.3641 56.0162C68.3641 50.753 63.8264 46.4863 58.2289 46.4863C52.6314 46.4863 48.0938 50.753 48.0938 56.0162C48.0938 61.2794 52.6314 65.5461 58.2289 65.5461Z" fill="white"/>
</svg>
