<svg width="110" height="110" viewBox="0 0 110 110" fill="none" xmlns="http://www.w3.org/2000/svg">
<path d="M55.0026 64.6152C60.1622 64.6152 64.345 60.4611 64.345 55.3369C64.345 50.2126 60.1622 46.0586 55.0026 46.0586C49.8429 46.0586 45.6602 50.2126 45.6602 55.3369C45.6602 60.4611 49.8429 64.6152 55.0026 64.6152Z" fill="white"/>
<path d="M29.2953 103.572C26.6223 104.074 25.9077 99.8373 28.7275 99.5673C31.2032 99.3308 31.8144 103.101 29.2953 103.572Z" fill="white"/>
<path d="M44.0127 94.5143C42.3719 95.0184 40.4543 95.2191 39.1358 93.9073C36.6336 91.4175 39.7614 88.2347 40.5722 85.7784C40.9596 84.6027 41.0245 83.4558 41.3758 82.3136C42.1 79.96 44.1066 77.463 46.8301 78.61C47.1718 78.7533 47.6001 79.0735 48.0644 79.4941C48.0644 79.4941 51.9621 78.3973 50.9877 74.4045C50.4199 72.6292 50.0036 70.806 49.4936 70.0223C49.0797 69.3891 48.0692 68.9685 47.6121 69.7618C46.782 71.2074 48.3146 72.9661 46.5559 74.7844C45.2518 76.1345 42.8555 76.0102 41.2796 77.1118C38.7485 78.88 35.7578 85.6684 31.9612 83.3459C28.6819 81.3411 31.3862 78.3949 30.8617 75.9147C30.6644 74.9804 29.4277 73.3627 28.3787 73.8932C27.13 74.5264 28.3883 76.6841 28.3282 77.6829C28.2007 79.7665 26.1075 81.8931 26.4997 84.2873C27.0434 87.6063 33.0896 86.2562 31.7182 90.844C30.828 93.8213 25.494 93.0065 23.0808 94.2036C21.6685 94.9037 19.3323 97.0925 20.5785 98.7316C24.2645 100.053 23.4296 94.4043 27.3153 96.2562C30.4118 97.7328 31.8818 99.4795 35.9455 99.2979C37.7933 99.2167 39.8095 97.7233 41.5971 97.2358C43.546 96.703 49.9218 96.7293 49.4262 93.7185C49.0268 91.3004 45.1002 94.1773 44.0079 94.5143H44.0127Z" fill="white"/>
<path d="M3.54521 76.142C1.17292 74.8207 3.36717 71.1194 5.70337 72.7108C7.75327 74.1086 5.78037 77.3869 3.54521 76.142Z" fill="white"/>
<path d="M20.6818 78.5994C19.0986 77.9375 17.5011 76.8671 17.3399 75.0224C17.0343 71.5194 21.4926 71.0774 23.7013 69.7106C24.7599 69.0559 25.5515 68.2196 26.5572 67.5697C28.6359 66.2292 31.7878 65.596 33.1327 68.2148C33.3011 68.5422 33.4238 69.0631 33.5056 69.6796C33.5056 69.6796 37.2012 71.3307 39.0418 67.6485C39.7563 65.9257 40.6177 64.2626 40.7332 63.3379C40.827 62.59 40.3242 61.6223 39.4604 61.9377C37.8869 62.5159 37.923 64.8409 35.4015 65.1109C33.5273 65.3116 31.7733 63.6868 29.8533 63.5243C26.7689 63.2638 20.0851 66.5541 18.68 62.3511C17.465 58.7215 21.4445 58.191 22.6474 55.9569C23.1022 55.1158 23.2008 53.0871 22.0532 52.8243C20.6866 52.5113 20.2559 54.9676 19.5606 55.6964C18.1146 57.2113 15.136 57.5029 13.8849 59.5889C12.155 62.4777 17.6575 65.3044 13.6395 67.9424C11.0314 69.6557 7.47055 65.6247 4.84804 65.001C3.31303 64.6354 0.105863 64.8194 0 66.8719C1.96809 70.2363 4.98278 65.3785 6.7632 69.2781C8.18032 72.3844 8.1755 74.6616 11.4067 77.118C12.8744 78.2338 15.3862 78.3796 17.0728 79.1466C18.911 79.9829 23.7783 84.0737 25.3445 81.45C26.6053 79.3425 21.7332 79.0391 20.6794 78.5994H20.6818Z" fill="white"/>
<path d="M1.5713 38.6895C0.611312 36.1615 4.68703 34.7277 5.44492 37.4398C6.10897 39.8197 2.47835 41.0718 1.5713 38.6895Z" fill="white"/>
<path d="M13.1101 51.5092C12.3258 49.9919 11.7941 48.1521 12.8647 46.6348C14.8978 43.7555 18.5982 46.262 21.175 46.6276C22.4092 46.802 23.5569 46.6658 24.7478 46.8116C27.2067 47.1103 30.0313 48.6395 29.3673 51.5021C29.2831 51.8605 29.0401 52.336 28.7032 52.8617C28.7032 52.8617 30.4668 56.4841 34.2586 54.8402C35.9212 53.9752 37.6559 53.2535 38.344 52.618C38.8998 52.1042 39.1404 51.0409 38.2766 50.7327C36.6983 50.1711 35.221 51.9752 33.1134 50.5726C31.5471 49.5308 31.256 47.1652 29.8894 45.8152C27.6951 43.6455 20.4459 41.9012 22.0892 37.7842C23.5087 34.2287 26.8988 36.3624 29.2662 35.4186C30.1589 35.0626 31.5471 33.5716 30.8374 32.6397C29.9929 31.5286 28.0729 33.1343 27.0696 33.249C24.9812 33.4855 22.5103 31.8081 20.2029 32.6086C17.0078 33.7173 19.3945 39.3947 14.6066 38.8499C11.5005 38.4962 11.3826 33.1367 9.77544 30.9838C8.83471 29.7245 6.26032 27.8177 4.85041 29.3231C4.17915 33.1582 9.6359 31.3589 8.47381 35.4831C7.54751 38.7686 6.07024 40.5082 6.95564 44.4532C7.35744 46.2453 9.18839 47.9585 9.98236 49.6216C10.8485 51.4352 11.9288 57.6765 14.828 56.6681C17.157 55.8581 13.6226 52.5176 13.0981 51.5068L13.1101 51.5092Z" fill="white"/>
<path d="M24.2999 8.73369C25.1998 6.18414 29.2514 7.68713 28.0773 10.2486C27.0452 12.4971 23.453 11.1375 24.2999 8.73369Z" fill="white"/>
<path d="M24.8417 25.9213C25.2219 24.2583 26.0062 22.5092 27.8083 22.0313C31.2296 21.1233 32.4422 25.4076 34.1793 27.3311C35.0118 28.2534 35.979 28.8819 36.7994 29.754C38.4908 31.5533 39.665 34.5282 37.3023 36.2987C37.0063 36.521 36.5131 36.7289 35.914 36.9176C35.914 36.9176 34.9204 40.8196 38.8902 41.9785C40.7212 42.3775 42.5208 42.9319 43.4592 42.8841C44.2171 42.8459 45.0904 42.1864 44.6261 41.3979C43.7792 39.9594 41.4815 40.3991 40.7741 37.9785C40.2496 36.1817 41.556 34.1817 41.3828 32.2773C41.1061 29.2164 36.6815 23.2499 40.6057 21.1448C43.9933 19.3264 45.2107 23.1257 47.6359 23.9166C48.5502 24.2152 50.5785 23.9572 50.6386 22.7911C50.7108 21.4005 48.2014 21.4053 47.3593 20.8509C45.6077 19.6992 44.7993 16.8366 42.5136 15.9764C39.3474 14.7864 37.502 20.6597 34.1865 17.1854C32.0356 14.9322 35.4136 10.7506 35.5772 8.07681C35.6734 6.51171 34.9324 3.40781 32.8801 3.66109C29.8847 6.17003 35.2283 8.27515 31.6699 10.6933C28.8357 12.6192 26.5764 13.0087 24.7022 16.5953C23.8505 18.2249 24.144 20.7051 23.6748 22.4877C23.1648 24.4303 19.9528 29.8998 22.8279 30.9798C25.1353 31.8448 24.5915 27.03 24.8441 25.9213H24.8417Z" fill="white"/>
<path d="M61.0984 0.300944C63.437 -1.07778 65.5687 2.65933 63.0112 3.87079C60.7664 4.9341 58.8946 1.59842 61.0984 0.300944Z" fill="white"/>
<path d="M50.388 13.8156C51.7545 12.7857 53.4893 11.9446 55.1782 12.7308C58.3854 14.2194 56.5424 18.2743 56.6291 20.8573C56.67 22.0951 57.0044 23.1942 57.0669 24.3842C57.1969 26.8429 56.1719 29.8704 53.2174 29.7174C52.8469 29.6983 52.332 29.543 51.7545 29.3065C51.7545 29.3065 48.4704 31.6601 50.7609 35.0842C51.9061 36.5585 52.9239 38.1331 53.6745 38.6946C54.2808 39.1486 55.3755 39.2012 55.5319 38.3004C55.8134 36.6588 53.7683 35.5286 54.7933 33.2228C55.5536 31.5119 57.8489 30.8142 58.9508 29.2443C60.7216 26.7235 61.1932 19.3281 65.56 20.2217C69.3302 20.9911 67.8048 24.6781 69.1522 26.831C69.6598 27.641 71.3777 28.7401 72.1813 27.8871C73.1364 26.8668 71.2117 25.2683 70.923 24.3077C70.3263 22.3077 71.5605 19.5981 70.3672 17.481C68.7119 14.5468 63.4957 17.8681 63.2046 13.0916C63.0145 9.99244 68.3101 8.94586 70.1651 7.00084C71.2502 5.86346 72.6937 3.0128 70.9566 1.89453C67.0373 1.90409 69.7681 6.92914 65.4782 6.5086C62.0593 6.17407 60.0768 5.03192 56.3187 6.58268C54.6104 7.28758 53.2294 9.37355 51.7185 10.4416C50.0704 11.6053 44.0699 13.7463 45.5736 16.4058C46.7814 18.5419 49.4809 14.5061 50.3904 13.818L50.388 13.8156Z" fill="white"/>
<path d="M94.7419 17.3322C97.4269 17.7694 96.6378 21.9916 93.895 21.2891C91.4866 20.6702 92.2108 16.9212 94.7419 17.3322Z" fill="white"/>
<path d="M77.7936 20.8452C79.5091 20.9288 81.3785 21.3923 82.1677 23.0721C83.6618 26.2621 79.6246 28.1904 78.0174 30.2238C77.2475 31.1987 76.7928 32.2525 76.071 33.2058C74.5793 35.1724 71.834 36.8355 69.6687 34.8331C69.3968 34.5822 69.1033 34.1354 68.8145 33.5834C68.8145 33.5834 64.7749 33.2895 64.313 37.3731C64.236 39.2345 63.9978 41.0887 64.2071 41.9991C64.3779 42.735 65.1839 43.4734 65.8841 42.8832C67.1616 41.8055 66.3292 39.6335 68.6052 38.5224C70.2966 37.698 72.5053 38.6275 74.3651 38.1281C77.3533 37.3253 82.4997 31.9633 85.269 35.4352C87.6581 38.4316 84.1045 40.2834 83.7412 42.7924C83.6041 43.7386 84.2104 45.6764 85.3773 45.5331C86.7703 45.3634 86.3276 42.9071 86.7294 41.9871C87.5667 40.0732 90.2662 38.7852 90.7209 36.403C91.3513 33.1007 85.2064 32.3146 88.0744 28.4699C89.9366 25.9753 94.6691 28.5536 97.3494 28.2477C98.9181 28.0685 101.868 26.8069 101.259 24.8427C98.2516 22.3481 97.0896 27.9395 94.0773 24.8786C91.6761 22.4389 90.8966 20.3004 87.0133 19.0889C85.2498 18.5393 82.8414 19.2562 80.9912 19.108C78.975 18.9479 72.9937 16.7568 72.4235 19.7532C71.9664 22.1618 76.646 20.7902 77.7888 20.8476L77.7936 20.8452Z" fill="white"/>
<path d="M109.499 51.8557C111.272 53.9034 107.935 56.637 106.289 54.3455C104.846 52.3335 107.827 49.925 109.499 51.8557Z" fill="white"/>
<path d="M94.2392 43.7287C95.5 44.8876 96.6332 46.436 96.1472 48.2257C95.2281 51.6211 90.8877 50.5244 88.3398 51.0548C87.1199 51.3105 86.0878 51.8266 84.9185 52.0966C82.5053 52.651 79.3246 52.1731 78.9613 49.2579C78.9156 48.8924 78.9805 48.3619 79.1153 47.755C79.1153 47.755 76.2112 44.9497 73.2134 47.7836C71.9503 49.16 70.5668 50.4288 70.1386 51.2603C69.7921 51.9317 69.9316 53.0118 70.8507 53.007C72.5277 52.9974 73.2952 50.8015 75.7589 51.4037C77.5875 51.8505 78.6774 53.9747 80.4265 54.78C83.2343 56.0727 90.6471 55.2507 90.522 59.6784C90.4137 63.5015 86.492 62.6485 84.5913 64.3378C83.8743 64.9758 83.0827 66.8468 84.0716 67.4824C85.2481 68.2398 86.4992 66.0774 87.4014 65.6305C89.2805 64.6986 92.1821 65.4346 94.0732 63.9005C96.6957 61.7739 92.4973 57.2483 97.1817 56.1348C100.223 55.4108 102.179 60.4072 104.431 61.8839C105.747 62.7488 108.824 63.664 109.63 61.7716C108.94 57.9412 104.433 61.4824 104.104 57.2148C103.841 53.8146 104.631 51.6761 102.441 48.2711C101.445 46.7227 99.1378 45.7359 97.8169 44.4408C96.3781 43.031 93.2119 37.5329 90.8372 39.4659C88.9268 41.0191 93.3995 42.9569 94.2392 43.7287Z" fill="white"/>
<path d="M98.4561 87.7217C98.4898 90.4218 94.1638 90.386 94.3852 87.5807C94.5801 85.1172 98.4248 85.1746 98.4561 87.7217Z" fill="white"/>
<path d="M92.0282 71.7554C92.2424 73.4472 92.11 75.3563 90.5798 76.4197C87.6782 78.434 85.0629 74.8211 82.7676 73.6025C81.6681 73.0195 80.5421 72.7566 79.4715 72.2166C77.2628 71.1007 75.1359 68.7041 76.7455 66.2382C76.9476 65.9299 77.3398 65.5644 77.8378 65.1844C77.8378 65.1844 77.4288 61.1797 73.2977 61.4377C71.4379 61.6862 69.5588 61.7747 68.6927 62.1379C67.9925 62.4318 67.4007 63.3493 68.108 63.9323C69.3976 64.9956 71.4066 63.8033 72.9055 65.8367C74.0171 67.3469 73.4782 69.6694 74.2962 71.4018C75.6099 74.1855 81.8221 78.2882 78.8603 81.5976C76.3028 84.4554 73.8511 81.3013 71.3008 81.3826C70.3408 81.4136 68.5219 82.3432 68.8659 83.459C69.2773 84.79 71.6352 83.9345 72.6168 84.1663C74.6595 84.6538 76.4062 87.0695 78.8483 87.1006C82.2335 87.1436 81.9448 80.9979 86.2563 83.1341C89.0545 84.5223 87.3197 89.5975 88.0873 92.1662C88.5372 93.6692 90.3008 96.3334 92.1437 95.3992C94.095 92.0252 88.3495 91.8604 90.8589 88.3813C92.8607 85.6095 94.848 84.4745 95.375 80.4674C95.6131 78.6466 94.4847 76.4149 94.3115 74.5822C94.1214 72.5822 95.2547 66.3529 92.1846 66.3146C89.7185 66.286 91.8887 70.6252 92.033 71.7531L92.0282 71.7554Z" fill="white"/>
<path d="M66.7786 108.145C65.0559 110.236 61.767 107.447 63.7519 105.44C65.4938 103.679 68.4026 106.176 66.7786 108.145Z" fill="white"/>
<path d="M72.19 91.811C71.2589 93.2447 69.9212 94.621 68.0613 94.4585C64.5342 94.1479 64.8686 89.7131 63.899 87.314C63.4347 86.1647 62.7417 85.2448 62.2726 84.148C61.303 81.8828 61.226 78.6905 64.053 77.8279C64.4067 77.7203 64.9432 77.6917 65.5712 77.718C65.5712 77.718 67.8472 74.3894 64.5174 71.9498C62.9342 70.9534 61.4353 69.8208 60.5355 69.546C59.8089 69.3238 58.7623 69.6487 58.9259 70.5472C59.2266 72.1864 61.5363 72.5543 61.3679 75.0681C61.2428 76.9342 59.3253 78.3703 58.832 80.2197C58.0381 83.1898 60.1409 90.2985 55.7283 90.9436C51.9197 91.5004 52.0833 87.5195 50.0767 85.952C49.3212 85.3618 47.3267 84.9126 46.8671 85.9903C46.3186 87.2734 48.6812 88.1217 49.2827 88.9269C50.5338 90.6043 50.3053 93.5696 52.1579 95.1539C54.7226 97.3474 58.4808 92.4561 60.3983 96.8456C61.6446 99.6938 57.03 102.475 55.9545 104.934C55.3265 106.372 54.9512 109.538 56.9698 110C60.6485 108.659 56.3539 104.865 60.5282 103.804C63.8557 102.958 66.1125 103.357 69.1079 100.623C70.4697 99.3808 71.0496 96.9507 72.1034 95.4358C73.251 93.7823 78.152 89.7346 75.8254 87.7441C73.9536 86.1456 72.8083 90.8576 72.19 91.811Z" fill="white"/>
<path d="M29.2953 103.572C26.6223 104.074 25.9077 99.8373 28.7275 99.5673C31.2032 99.3308 31.8144 103.101 29.2953 103.572Z" fill="white"/>
<path d="M44.0127 94.5143C42.3719 95.0184 40.4543 95.2191 39.1358 93.9073C36.6336 91.4175 39.7614 88.2347 40.5722 85.7784C40.9596 84.6027 41.0245 83.4558 41.3758 82.3136C42.1 79.96 44.1066 77.463 46.8301 78.61C47.1718 78.7533 47.6001 79.0735 48.0644 79.4941C48.0644 79.4941 51.9621 78.3973 50.9877 74.4045C50.4199 72.6292 50.0036 70.806 49.4936 70.0223C49.0797 69.3891 48.0692 68.9685 47.6121 69.7618C46.782 71.2074 48.3146 72.9661 46.5559 74.7844C45.2518 76.1345 42.8555 76.0102 41.2796 77.1118C38.7485 78.88 35.7578 85.6684 31.9612 83.3459C28.6819 81.3411 31.3862 78.3949 30.8617 75.9147C30.6644 74.9804 29.4277 73.3627 28.3787 73.8932C27.13 74.5264 28.3883 76.6841 28.3282 77.6829C28.2007 79.7665 26.1075 81.8931 26.4997 84.2873C27.0434 87.6063 33.0896 86.2562 31.7182 90.844C30.828 93.8213 25.494 93.0065 23.0808 94.2036C21.6685 94.9037 19.3323 97.0925 20.5785 98.7316C24.2645 100.053 23.4296 94.4043 27.3153 96.2562C30.4118 97.7328 31.8818 99.4795 35.9455 99.2979C37.7933 99.2167 39.8095 97.7233 41.5971 97.2358C43.546 96.703 49.9218 96.7293 49.4262 93.7185C49.0268 91.3004 45.1002 94.1773 44.0079 94.5143H44.0127Z" fill="white"/>
</svg>
